<?xml version="1.0" encoding="UTF-8"?>
<svg id="Layer_1" data-name="Layer 1" xmlns="http://www.w3.org/2000/svg" viewBox="0 0 1200 1200">
  <defs>
    <style>
      .cls-1 {
        fill: none;
        stroke: #000;
        stroke-miterlimit: 10;
        stroke-width: 15px;
      }

      .cls-2 {
        fill: #020202;
        stroke-width: 0px;
      }
    </style>
  </defs>
  <g>
    <path class="cls-2" d="M268.71,1142.93c-.53.22-.71.11-.96-.29l-4.18-6.62c-.25-.4-.19-.66.13-.86l17.22-10.87c.56-.35.79-.16,1.04.24l16.3,25.83c.25.4.27.61-.03,1.02-4,5.31-8.8,9.01-13.19,11.78-17.94,11.32-34.1,5.14-43.41-9.61-10.52-16.66-5.84-34.33,10.98-44.95,4.94-3.12,9.68-5.33,13.19-5.76.42-.04.73.1,1.03.58l4.53,7.17c.3.48.03.76-.39.8-4.4.44-8.61,2.43-13.13,5.17-12.41,7.72-14.62,19.04-7.18,30.84,6.79,10.76,18.06,15.02,29.78,7.62,2.55-1.61,4.15-2.96,5.37-4.39l-8.2-12.99-8.92,5.3Z"/>
    <path class="cls-2" d="M343.42,1124.42c.22.53.16.79-.32,1.09l-30.13,19.02c-.56.35-.74.24-1.04-.24l-32.11-50.86c-.3-.48-.32-.69.16-.99l29.18-18.42c.48-.3.69-.32,1.02.03l5.17,6.43c.33.35.37.77-.1,1.07l-21.76,13.74,8.4,13.31,19.77-12.48c.32-.2.66-.19.91.21l4.43,7.01c.3.48.11.71-.29.96l-19.69,12.43,9.11,14.43,23.12-14.59c.48-.3.66-.19.83.26l3.34,7.59Z"/>
    <path class="cls-2" d="M355.3,1117.81c-.48.3-.69.32-1.04-.24l-32.16-50.94c-.25-.4-.27-.61.13-.86l10.44-6.59c.56-.35.69-.32,1.23,0,12.25,6.87,38.88,22.39,45.06,26.52l.08-.05c-1.54-2.26-3.66-5.27-8.09-12.28l-16.91-26.78c-.3-.48-.24-.74.24-1.04l7.17-4.53c.48-.3.74-.24,1.04.24l32.05,50.78c.35.56.29.82-.34,1.22l-9.33,5.89c-.56.35-.85.42-1.39.1-9.04-5.66-39.94-22.83-47.54-28.51l-.08.05c2.73,3.63,5.28,7.48,9.71,14.5l17.06,27.02c.3.48.24.74-.16.99l-7.17,4.53Z"/>
    <path class="cls-2" d="M404.91,1059.18c4.78,7.57,11.5,9.91,18.75,5.33,5.98-3.77,8.66-9.59,2.67-19.08l-20.08-31.81c-.3-.48-.24-.74.24-1.04l7.73-4.88c.48-.3.74-.24,1.04.23l20.38,32.28c9.11,14.43,3.73,25.51-7.27,32.46-11.88,7.5-23.54,6.16-31.94-7.15l-20.63-32.68c-.3-.48-.32-.69.16-.99l7.81-4.93c.48-.3.66-.19.91.21l20.23,32.04Z"/>
    <path class="cls-2" d="M469.6,1044.77c.3.48.24.74-.16.99l-7.81,4.93c-.48.3-.66.19-.96-.29l-32.16-50.94c-.3-.48-.19-.66.21-.91l7.81-4.93c.4-.25.66-.19.91.21l32.16,50.94Z"/>
    <path class="cls-2" d="M484.67,1036.15c-.48.3-.69.32-1.04-.24l-32.16-50.94c-.25-.4-.27-.61.13-.86l10.44-6.59c.56-.35.69-.32,1.23,0,12.25,6.87,38.88,22.39,45.06,26.52l.08-.05c-1.54-2.26-3.66-5.27-8.09-12.28l-16.91-26.78c-.3-.48-.24-.74.24-1.04l7.17-4.53c.48-.3.74-.24,1.04.24l32.05,50.78c.35.56.29.82-.34,1.22l-9.33,5.89c-.56.35-.85.42-1.39.1-9.04-5.66-39.94-22.83-47.54-28.51l-.08.05c2.73,3.63,5.28,7.48,9.71,14.5l17.06,27.02c.3.48.24.74-.16.99l-7.17,4.53Z"/>
    <path class="cls-2" d="M569.48,981.72c.22.53.16.79-.31,1.09l-30.13,19.02c-.56.35-.74.24-1.04-.24l-32.11-50.86c-.3-.48-.32-.69.16-.99l29.17-18.42c.48-.3.69-.32,1.02.03l5.17,6.43c.33.35.37.77-.1,1.07l-21.76,13.74,8.4,13.31,19.77-12.48c.32-.2.66-.19.91.21l4.43,7.01c.3.48.11.71-.29.96l-19.69,12.43,9.11,14.43,23.12-14.59c.48-.3.66-.19.83.26l3.34,7.59Z"/>
    <path class="cls-2" d="M568.21,911.39c-.25-.4-.27-.61.05-.81,2.93-2.07,8.3-5.57,13.72-8.99,14.67-9.26,25.67-4.72,31.25,4.13,7.85,12.44,1.84,23.92-9.8,31.27l-4.7,2.97,10.57,16.74c.25.4.19.66-.29.96l-7.81,4.93c-.32.2-.58.14-.83-.26l-32.16-50.94ZM593.7,931.98c1.33-.73,2.36-1.38,4.75-2.89,6.62-4.18,10.69-10.09,6.01-17.5-3.77-5.98-10.13-6.87-17.31-2.34-2.55,1.61-4.6,3.13-5.43,3.76l11.98,18.97Z"/>
    <path class="cls-2" d="M674.25,879.46c10.75,16.85,7.75,33.12-6.12,41.88-14.59,9.21-30.22,3.69-40.29-12.25-9.86-15.62-7.37-32.69,6.5-41.45,14.67-9.26,30.41-3.03,39.9,11.82ZM663.42,913.16c8.69-5.49,8.98-16.15,1.73-27.63-7.28-11.35-17.04-15.33-25.88-9.75-8.05,5.08-9.87,15.26-2.17,27.46,6.69,10.6,16.92,15.85,26.32,9.92Z"/>
    <path class="cls-2" d="M737.3,861.39l.08-.05c-2.07-5.05-6.89-17.28-17.37-45.89-.17-.45-.03-.76.45-1.06l7.73-4.88c.48-.3.74-.24.88.34l19.45,59.07c.09.5-.02.68-.5.98l-8.21,5.18c-.48.3-.74.24-1.1.02-8.75-8.74-28.88-29.15-35.17-35.76l-.08.05c3.55,8.46,12.56,36.33,16.21,47.4.22.53.13.92-.34,1.22l-8.05,5.08c-.48.3-.74.24-1.2-.13l-44.86-42.81c-.38-.43-.24-.74.08-.94l8.37-5.28c.4-.25.64-.4,1.02.03,24.35,24.09,30.95,31.19,34.35,35.17l.08-.05c-2.39-5.74-5.82-16.28-16.45-46.36-.14-.58.05-.81.45-1.06l8.69-5.49c.48-.3.61-.27.99.16,12.02,12.15,25.03,25,34.51,35.07Z"/>
    <path class="cls-2" d="M801.74,835.09c.22.53.16.79-.31,1.09l-30.13,19.02c-.56.35-.74.24-1.04-.24l-32.11-50.86c-.3-.48-.32-.69.16-.99l29.18-18.42c.48-.3.69-.32,1.02.03l5.18,6.43c.33.35.37.77-.11,1.07l-21.76,13.74,8.4,13.31,19.77-12.48c.32-.2.66-.19.91.21l4.43,7.01c.3.48.11.71-.29.96l-19.69,12.43,9.11,14.43,23.12-14.59c.48-.3.66-.19.83.26l3.34,7.59Z"/>
    <path class="cls-2" d="M813.54,828.53c-.48.3-.66.19-.96-.29l-32.05-50.78c-.2-.32-.32-.69.08-.94,5.24-3.53,8.7-5.82,14.68-9.6,12.2-7.7,22.95-6.91,29.29,3.14,4.43,7.01,2.9,14.67-1.29,20.21,4.87,2.06,23.12,10.49,28.1,13.25.49.25.82.6.34.9l-9.17,5.79c-.64.4-.9.34-1.29.26-4.55-2.26-15.88-8.03-23.01-11.56-1.16-.6-1.81-.75-2.69-.2l-6.7,4.23,12.53,19.85c.25.4.19.66-.21.91l-7.65,4.83ZM810.69,790.98c6.54-4.13,8.4-9.65,5.18-14.75-3.42-5.42-9.2-5.56-15.97-1.29-2.55,1.61-4.84,3.28-6.07,4.16l10.17,16.1,6.7-4.23Z"/>
    <path class="cls-2" d="M860.81,798.7c-.56.35-.79.16-1.14-.39l-32-50.7c-.25-.4-.32-.69.16-.99l7.89-4.98c.4-.25.58-.14.83.26l27.42,43.44,22.48-14.19c.4-.25.71-.11.83.26l3.23,7.77c.22.53-.05.81-.36,1.01l-29.33,18.52Z"/>
    <path class="cls-2" d="M909.11,767.31c.3.48.24.74-.16.99l-7.81,4.93c-.48.3-.66.19-.96-.29l-32.16-50.94c-.3-.48-.19-.66.21-.91l7.81-4.93c.4-.25.66-.19.91.21l32.16,50.94Z"/>
    <path class="cls-2" d="M932.06,752.82c.3.48.24.74-.16.99l-7.89,4.98c-.4.25-.63.06-.88-.34l-32.16-50.94c-.25-.4-.27-.61.13-.86l29.33-18.52c.4-.25.61-.27.99.16l5.1,6.48c.38.43.32.69-.16.99l-21.68,13.69,9.11,14.43,19.45-12.28c.4-.25.66-.19.91.21l4.43,7.01c.25.4.19.66-.21.91l-19.45,12.28,13.13,20.81Z"/>
    <path class="cls-2" d="M949.72,681.03l-15.38,9.71c-.4.25-.63.06-.8-.39l-3.42-7.54c-.17-.45-.11-.71.37-1.01l37.54-23.7c.48-.3.74-.24,1.12.18l5,6.32c.38.43.29.82-.11,1.07l-15.3,9.66,27.32,43.28c.3.48.21.87-.18,1.12l-7.65,4.83c-.43.38-.82.29-1.12-.18l-27.38-43.37Z"/>
    <path class="cls-2" d="M1019.18,697.82c.3.48.24.74-.16.99l-7.81,4.93c-.48.3-.66.19-.96-.29l-32.16-50.94c-.3-.48-.19-.66.21-.91l7.81-4.93c.4-.25.66-.19.91.21l32.16,50.94Z"/>
    <path class="cls-2" d="M1034.25,689.2c-.48.3-.69.32-1.04-.24l-32.16-50.94c-.25-.4-.27-.61.13-.86l10.44-6.59c.56-.35.69-.32,1.23,0,12.25,6.87,38.88,22.39,45.06,26.52l.08-.05c-1.54-2.26-3.66-5.27-8.09-12.29l-16.91-26.78c-.3-.48-.24-.74.24-1.04l7.17-4.53c.48-.3.74-.24,1.04.23l32.05,50.78c.35.56.29.82-.34,1.22l-9.33,5.89c-.56.35-.85.42-1.39.1-9.04-5.67-39.94-22.83-47.54-28.51l-.08.05c2.73,3.63,5.28,7.48,9.71,14.5l17.06,27.02c.3.48.24.74-.16.99l-7.17,4.53Z"/>
    <path class="cls-2" d="M1095.84,620.78c-.53.22-.71.11-.96-.29l-4.18-6.62c-.25-.4-.19-.66.13-.86l17.22-10.87c.56-.35.79-.16,1.04.24l16.3,25.83c.25.4.27.61-.03,1.02-4,5.31-8.8,9.01-13.19,11.78-17.94,11.32-34.1,5.14-43.41-9.61-10.52-16.66-5.84-34.33,10.98-44.95,4.94-3.12,9.68-5.33,13.19-5.76.42-.04.73.1,1.03.58l4.53,7.17c.3.48.03.76-.39.8-4.4.44-8.61,2.43-13.13,5.17-12.41,7.72-14.62,19.04-7.18,30.84,6.79,10.76,18.06,15.02,29.78,7.62,2.55-1.61,4.15-2.96,5.37-4.39l-8.2-12.99-8.92,5.3Z"/>
  </g>
  <g>
    <path class="cls-1" d="M165.66,986.16V285.98c41.25,24.07,80.28,45.41,117.33,69.74,6.93,4.55,8.24,21.12,8.29,32.16.54,127.96.35,255.93.35,383.9,0,11.65,0,23.3,0,41.52,90.1-51.8,176.43-98.86,268.64-151.88-44.53-26.68-85.05-49.06-125.98-76.17-20.67-15.95-31.9-27.8-32.68-56.19-.46-29.58.65-64.1.65-105.26,138.84,79.97,271.39,157.75,409.56,237.34-202.97,117.28-402.46,229.97-606.47,347.85-17.6,10.17-39.67-2.5-39.67-22.83Z"/>
    <path class="cls-1" d="M210.18,35.01c268.01,154.86,529.12,305.75,793.43,458.48,20.87,12.06,20.92,42.19.08,54.31-24.41,14.19-46.68,29.51-70.45,41.84-6.7,3.47-20.23-1.76-28.55-6.55-207.86-119.42-416.43-241.33-624.07-361.13-11.36-6.56-23.18-12.58-34.37-19.08-64.86-37.65-96.81-73.07-82.26-145.69.03-.13.05-.25.07-.38,4.1-21.28,27.36-32.64,46.12-21.8Z"/>
  </g>
</svg>