<?xml version="1.0" encoding="UTF-8"?>
<svg id="Layer_1" data-name="Layer 1" xmlns="http://www.w3.org/2000/svg" viewBox="0 0 300 300">
  <defs>
    <style>
      .cls-1 {
        fill: none;
        stroke: #000;
        stroke-miterlimit: 10;
        stroke-width: 6px;
      }

      .cls-2 {
        fill: #020202;
        stroke-width: 0px;
      }
    </style>
  </defs>
  <g>
    <path class="cls-2" d="M72.07,289.74c-.13.06-.18.03-.24-.07l-1.05-1.67c-.06-.1-.05-.17.03-.22l4.35-2.75c.14-.09.2-.04.26.06l4.12,6.53c.06.1.07.15,0,.26-1.01,1.34-2.22,2.28-3.33,2.98-4.53,2.86-8.62,1.3-10.97-2.43-2.66-4.21-1.48-8.67,2.77-11.36,1.25-.79,2.45-1.35,3.33-1.46.11-.01.18.02.26.14l1.14,1.81c.08.12,0,.19-.1.2-1.11.11-2.18.61-3.32,1.31-3.13,1.95-3.69,4.81-1.81,7.79,1.72,2.72,4.56,3.79,7.53,1.93.64-.41,1.05-.75,1.36-1.11l-2.07-3.28-2.25,1.34Z"/>
    <path class="cls-2" d="M90.95,285.06c.06.13.04.2-.08.28l-7.61,4.81c-.14.09-.19.06-.26-.06l-8.11-12.85c-.08-.12-.08-.17.04-.25l7.37-4.65c.12-.08.17-.08.26,0l1.31,1.62c.08.09.09.19-.03.27l-5.5,3.47,2.12,3.36,5-3.15c.08-.05.17-.05.23.05l1.12,1.77c.08.12.03.18-.07.24l-4.98,3.14,2.3,3.65,5.84-3.69c.12-.08.17-.05.21.06l.84,1.92Z"/>
    <path class="cls-2" d="M93.95,283.39c-.12.08-.17.08-.26-.06l-8.12-12.87c-.06-.1-.07-.15.03-.22l2.64-1.67c.14-.09.17-.08.31,0,3.1,1.74,9.82,5.66,11.38,6.7h.02c-.39-.58-.92-1.34-2.04-3.12l-4.27-6.77c-.08-.12-.06-.19.06-.26l1.81-1.14c.12-.08.19-.06.26.06l8.1,12.83c.09.14.07.21-.09.31l-2.36,1.49c-.14.09-.21.11-.35.02-2.28-1.43-10.09-5.77-12.01-7.2h-.02c.69.93,1.33,1.9,2.45,3.68l4.31,6.83c.08.12.06.19-.04.25l-1.81,1.14Z"/>
    <path class="cls-2" d="M106.49,268.58c1.21,1.91,2.9,2.5,4.74,1.35,1.51-.95,2.19-2.42.68-4.82l-5.07-8.04c-.08-.12-.06-.19.06-.26l1.95-1.23c.12-.08.19-.06.26.06l5.15,8.16c2.3,3.65.94,6.45-1.84,8.2-3,1.89-5.95,1.56-8.07-1.81l-5.21-8.26c-.08-.12-.08-.17.04-.25l1.97-1.25c.12-.08.17-.05.23.05l5.11,8.1Z"/>
    <path class="cls-2" d="M122.84,264.94c.08.12.06.19-.04.25l-1.97,1.25c-.12.08-.17.05-.24-.07l-8.12-12.87c-.08-.12-.05-.17.05-.23l1.97-1.25c.1-.06.17-.05.23.05l8.12,12.87Z"/>
    <path class="cls-2" d="M126.64,262.76c-.12.08-.17.08-.26-.06l-8.12-12.87c-.06-.1-.07-.15.03-.22l2.64-1.67c.14-.09.17-.08.31,0,3.1,1.74,9.82,5.66,11.38,6.7h.02c-.39-.58-.93-1.34-2.04-3.12l-4.27-6.77c-.08-.12-.06-.19.06-.26l1.81-1.14c.12-.08.19-.06.26.06l8.1,12.83c.09.14.07.21-.09.31l-2.36,1.49c-.14.09-.21.11-.35.02-2.28-1.43-10.09-5.77-12.01-7.21h-.02c.69.93,1.33,1.9,2.45,3.68l4.31,6.83c.08.12.06.19-.04.25l-1.81,1.14Z"/>
    <path class="cls-2" d="M148.07,249c.06.13.04.2-.08.28l-7.61,4.81c-.14.09-.19.06-.26-.06l-8.11-12.85c-.08-.12-.08-.17.04-.25l7.37-4.65c.12-.08.17-.08.26,0l1.31,1.62c.08.09.09.19-.03.27l-5.5,3.47,2.12,3.36,5-3.15c.08-.05.17-.05.23.05l1.12,1.77c.08.12.03.18-.07.24l-4.97,3.14,2.3,3.65,5.84-3.69c.12-.08.17-.05.21.06l.84,1.92Z"/>
    <path class="cls-2" d="M147.76,231.23c-.06-.1-.07-.15.01-.21.74-.52,2.1-1.41,3.47-2.27,3.71-2.34,6.49-1.19,7.9,1.04,1.98,3.14.46,6.04-2.48,7.9l-1.19.75,2.67,4.23c.06.1.05.17-.07.24l-1.97,1.25c-.08.05-.15.04-.21-.07l-8.12-12.87ZM154.19,236.43c.34-.18.6-.35,1.2-.73,1.67-1.05,2.7-2.55,1.52-4.42-.95-1.51-2.56-1.74-4.37-.59-.64.41-1.16.79-1.37.95l3.03,4.79Z"/>
    <path class="cls-2" d="M174.55,223.16c2.72,4.26,1.96,8.37-1.55,10.58-3.69,2.33-7.63.93-10.18-3.1-2.49-3.95-1.86-8.26,1.64-10.47,3.71-2.34,7.68-.77,10.08,2.99ZM171.81,231.68c2.2-1.39,2.27-4.08.44-6.98-1.84-2.87-4.3-3.87-6.54-2.46-2.03,1.28-2.5,3.86-.55,6.94,1.69,2.68,4.27,4,6.65,2.5Z"/>
    <path class="cls-2" d="M190.48,218.6h.02c-.52-1.29-1.74-4.38-4.39-11.61-.04-.11,0-.19.11-.27l1.95-1.23c.12-.08.19-.06.22.08l4.92,14.92c.02.13,0,.17-.13.25l-2.07,1.31c-.12.08-.19.06-.28,0-2.21-2.21-7.3-7.36-8.89-9.04h-.02c.9,2.15,3.18,9.19,4.1,11.99.06.13.03.23-.09.31l-2.03,1.28c-.12.08-.19.06-.3-.03l-11.33-10.82c-.1-.11-.06-.19.02-.24l2.12-1.34c.1-.06.16-.1.26,0,6.15,6.09,7.82,7.88,8.68,8.89h.02c-.6-1.46-1.47-4.13-4.16-11.73-.04-.15.01-.2.11-.27l2.2-1.39c.12-.08.15-.07.25.04,3.04,3.07,6.33,6.32,8.72,8.86Z"/>
    <path class="cls-2" d="M206.76,211.95c.06.13.04.2-.08.28l-7.61,4.81c-.14.09-.19.06-.26-.06l-8.11-12.85c-.08-.12-.08-.17.04-.25l7.37-4.65c.12-.08.17-.08.26,0l1.31,1.62c.08.09.09.19-.03.27l-5.5,3.47,2.12,3.36,5-3.15c.08-.05.17-.05.23.05l1.12,1.77c.08.12.03.18-.07.24l-4.98,3.14,2.3,3.65,5.84-3.69c.12-.08.17-.05.21.06l.84,1.92Z"/>
    <path class="cls-2" d="M209.75,210.3c-.12.08-.17.05-.24-.07l-8.1-12.83c-.05-.08-.08-.17.02-.24,1.32-.89,2.2-1.47,3.71-2.43,3.08-1.95,5.8-1.75,7.4.79,1.12,1.77.73,3.71-.33,5.11,1.23.52,5.84,2.65,7.1,3.35.12.06.21.15.09.23l-2.32,1.46c-.16.1-.23.09-.33.07-1.15-.57-4.01-2.03-5.81-2.92-.29-.15-.46-.19-.68-.05l-1.69,1.07,3.17,5.01c.06.1.05.17-.05.23l-1.93,1.22ZM209.02,200.81c1.65-1.04,2.12-2.44,1.31-3.73-.86-1.37-2.32-1.41-4.04-.33-.64.41-1.22.83-1.53,1.05l2.57,4.07,1.69-1.07Z"/>
    <path class="cls-2" d="M221.69,202.76c-.14.09-.2.04-.29-.1l-8.09-12.81c-.06-.1-.08-.17.04-.25l1.99-1.26c.1-.06.15-.04.21.06l6.93,10.98,5.68-3.59c.1-.06.18-.03.21.06l.82,1.96c.06.13-.01.21-.09.26l-7.41,4.68Z"/>
    <path class="cls-2" d="M233.89,194.83c.08.12.06.19-.04.25l-1.97,1.25c-.12.08-.17.05-.24-.07l-8.12-12.87c-.08-.12-.05-.17.05-.23l1.97-1.25c.1-.06.17-.05.23.05l8.12,12.87Z"/>
    <path class="cls-2" d="M239.7,191.17c.08.12.06.19-.04.25l-1.99,1.26c-.1.06-.16.02-.22-.08l-8.12-12.87c-.06-.1-.07-.15.03-.22l7.41-4.68c.1-.06.15-.07.25.04l1.29,1.64c.1.11.08.17-.04.25l-5.48,3.46,2.3,3.65,4.92-3.1c.1-.06.17-.05.23.05l1.12,1.77c.06.1.05.17-.05.23l-4.91,3.1,3.32,5.26Z"/>
    <path class="cls-2" d="M244.16,173.02l-3.89,2.45c-.1.06-.16.02-.2-.1l-.87-1.91c-.04-.11-.03-.18.09-.25l9.49-5.99c.12-.08.19-.06.28.05l1.26,1.6c.1.11.07.21-.03.27l-3.87,2.44,6.9,10.94c.08.12.05.22-.05.28l-1.93,1.22c-.11.1-.21.07-.28-.05l-6.92-10.96Z"/>
    <path class="cls-2" d="M261.71,177.27c.08.12.06.19-.04.25l-1.97,1.25c-.12.08-.17.05-.24-.07l-8.12-12.87c-.08-.12-.05-.17.05-.23l1.97-1.25c.1-.06.17-.05.23.05l8.12,12.87Z"/>
    <path class="cls-2" d="M265.52,175.09c-.12.08-.17.08-.26-.06l-8.12-12.87c-.06-.1-.07-.15.03-.22l2.64-1.67c.14-.09.17-.08.31,0,3.1,1.74,9.83,5.66,11.38,6.7h.02c-.39-.58-.92-1.34-2.04-3.12l-4.27-6.77c-.08-.12-.06-.19.06-.26l1.81-1.14c.12-.08.19-.06.26.06l8.1,12.83c.09.14.07.21-.09.31l-2.36,1.49c-.14.09-.21.11-.35.02-2.28-1.43-10.09-5.77-12.01-7.21h-.02c.69.93,1.33,1.9,2.45,3.68l4.31,6.83c.08.12.06.19-.04.25l-1.81,1.14Z"/>
    <path class="cls-2" d="M281.08,157.8c-.13.06-.18.03-.24-.07l-1.06-1.67c-.06-.1-.05-.17.03-.22l4.35-2.75c.14-.09.2-.04.26.06l4.12,6.53c.06.1.07.15,0,.26-1.01,1.34-2.22,2.28-3.33,2.98-4.53,2.86-8.62,1.3-10.97-2.43-2.66-4.21-1.48-8.67,2.77-11.36,1.25-.79,2.45-1.35,3.33-1.46.11-.01.18.02.26.14l1.14,1.81c.08.12,0,.19-.1.2-1.11.11-2.18.61-3.32,1.31-3.13,1.95-3.7,4.81-1.81,7.79,1.72,2.72,4.56,3.8,7.53,1.93.64-.41,1.05-.75,1.36-1.11l-2.07-3.28-2.25,1.34Z"/>
  </g>
  <g>
    <path class="cls-1" d="M42.84,246.05V69.12c10.42,6.08,20.29,11.47,29.65,17.62,1.75,1.15,2.08,5.34,2.09,8.13.14,32.33.09,64.67.09,97.01,0,2.94,0,5.89,0,10.49,22.77-13.09,44.33-25.49,67.63-38.88-11.25-6.74-21.19-13.16-31.58-18.74-6.06-3.25-8.9-7.04-8.26-14.2-.37-7.65.16-16.2.16-26.6,35.08,20.21,68.32,39.36,103.24,59.47-51.29,29.64-101.44,58.62-153,88.4-4.45,2.57-10.02-.63-10.02-5.77Z"/>
    <path class="cls-1" d="M54.09,5.71c67.31,38.9,133.29,77.02,200.49,115.85,5.27,3.05,5.29,10.66.02,13.72-6.17,3.59-12.05,6.95-18.05,10.07-1.69.88-5.11-.45-7.21-1.65-52.52-30.18-104.97-60.48-157.44-90.75-2.87-1.66-5.93-3.05-8.69-4.82-15.56-10.01-24.46-18.46-20.79-36.82,0-.03.01-.06.02-.1,1.04-5.38,6.91-8.25,11.65-5.51Z"/>
  </g>
</svg>